# xmcd
#
# Track frame offsets: 
#        150
#        19095
#        36784
#        54397
#        70582
#        88600
#        103581
#        116070
#        129925
#        147780
#        162918
#        181082
#
# Disc length: 2645 seconds
#
# Revision: 0
# Processed by: cddbd v1.5.2PL0 Copyright (c) Steve Scherf et al.
# Submitted via: ExactAudioCopyFreeDBPlugin 1.0
#
DISCID=940a530c
DTITLE=Whiskey Jane - Things Left Unsaid
DYEAR=2008
DGENRE=Country
TTITLE0=Try
TTITLE1=Summertime
TTITLE2=Rodeo Girl
TTITLE3=Angels
TTITLE4=Little Jenny Riley
TTITLE5=And The Devil Makes Three
TTITLE6=Drunk
TTITLE7=Cowboy
TTITLE8=Don't Do Me No Good
TTITLE9=High Steppin'
TTITLE10=Music City
TTITLE11=Wasn't Enough
EXTD=
EXTT0=
EXTT1=
EXTT2=
EXTT3=
EXTT4=
EXTT5=
EXTT6=
EXTT7=
EXTT8=
EXTT9=
EXTT10=
EXTT11=
PLAYORDER=
